<?xml version="1.0" standalone="no"?>
<!DOCTYPE svg PUBLIC "-//W3C//DTD SVG 1.1//EN" "http://www.w3.org/Graphics/SVG/1.1/DTD/svg11.dtd" >
<svg xmlns="http://www.w3.org/2000/svg">
<metadata>
This is a custom SVG webfont generated by Font Squirrel.
Copyright   : URW Software Copyright 1994 by URW
Foundry     : by URW
</metadata>
<defs>
<font id="HandelGothicDRegular" horiz-adv-x="1024" >
<font-face units-per-em="2048" ascent="1638" descent="-410" />
<missing-glyph horiz-adv-x="512" />
<glyph unicode=" "  horiz-adv-x="512" />
<glyph unicode="&#x09;" horiz-adv-x="512" />
<glyph unicode="&#xa0;" horiz-adv-x="512" />
<glyph unicode="!" horiz-adv-x="489" d="M141 0v221h205v-221h-205zM141 315v1051h205v-1051h-205z" />
<glyph unicode="&#x22;" horiz-adv-x="690" d="M102 817v549h140v-549h-140zM446 817v549h140v-549h-140z" />
<glyph unicode="#" horiz-adv-x="1247" d="M37 440l22 138h252l37 237h-252l21 137h254l55 344h176l-55 -344h233l56 344h176l-56 -344h254l-22 -137h-252l-37 -237h252l-23 -138h-251l-60 -372h-178l59 372h-231l-59 -372h-179l60 372h-252zM489 578h232l37 237h-232z" />
<glyph unicode="$" horiz-adv-x="1304" d="M74 954q0 117 53 211.5t147 145.5q51 27 127 41t162 14h23v197h133v-197h446v-174h-446v-395h37q244 0 342 -80q63 -53 98 -137t35 -187q0 -121 -51.5 -211t-147.5 -135q-45 -23 -124 -35t-163 -12h-26v-201h-133v201h-463v174h463v424q-109 0 -173.5 7t-121.5 26 q-102 33 -159.5 118.5t-57.5 204.5zM305 987q0 -111 78 -153q18 -10 31.5 -16.5t32 -9.5t46 -5t74.5 -4l19 -2v395h-23q-258 0 -258 -205zM719 174h16l39 2q111 2 168 55.5t57 153.5q0 115 -58 165t-189 50h-14q-9 0 -19 -2v-424z" />
<glyph unicode="%" horiz-adv-x="1808" d="M84 1010q0 190 91 278t288 88q342 0 342 -354q0 -86 -23.5 -156.5t-64.5 -117.5q-82 -94 -262 -95q-193 0 -282 85.5t-89 271.5zM238 1024q0 -252 211 -252q203 0 202 242q0 133 -47 188t-164 55q-104 0 -153 -56t-49 -177zM557 -27l557 1420h141l-559 -1420h-139z M1006 346q0 190 91 278.5t287 88.5q342 0 342 -355q0 -86 -23.5 -156.5t-64.5 -117.5q-82 -94 -262 -94q-193 0 -281.5 85t-88.5 271zM1159 360q0 -252 211 -251q203 0 203 241q0 133 -47 188.5t-164 55.5q-104 0 -153.5 -56.5t-49.5 -177.5z" />
<glyph unicode="&#x26;" horiz-adv-x="1515" d="M76 365q0 117 50 193.5t169 139.5q-70 27 -105.5 53.5t-62.5 71.5q-45 72 -45 174q0 96 36 171t101 122q59 41 140 58.5t206 17.5h514v-174h-489q-49 0 -85 -3t-62.5 -10.5t-46 -19.5t-36.5 -31q-47 -57 -47 -141q0 -96 76 -147q33 -23 80 -31t141 -8h133v-174h-84 q-98 0 -155.5 -11.5t-100.5 -40.5q-96 -61 -96 -180t92.5 -180t268.5 -61q258 0 356 159q16 27 27.5 54.5t17.5 63.5t8 83t2 113h-219v174h643v-174h-219q-2 -109 -8 -182.5t-20.5 -128t-39 -93.5t-63.5 -78q-170 -166 -498 -165q-268 0 -399 75q-180 103 -180 310z" />
<glyph unicode="'" horiz-adv-x="344" d="M102 817v549h140v-549h-140z" />
<glyph unicode="(" horiz-adv-x="782" d="M86 651q0 244 55.5 425t161.5 292q76 78 175.5 118t238.5 50v-164q-221 -27 -326 -198q-53 -84 -76.5 -210t-23.5 -323q0 -102 7 -182t22.5 -141.5t40 -108.5t59.5 -84q53 -57 124.5 -87t172.5 -40v-164q-319 16 -475 217t-156 600z" />
<glyph unicode=")" horiz-adv-x="782" d="M86 -2q100 10 172 40t125 87q35 37 59.5 84t40 108.5t22.5 141.5t7 182q0 197 -23.5 323t-76.5 210q-104 172 -326 198v164q158 -10 267.5 -62.5t187.5 -152.5q86 -111 131 -281t45 -389q0 -399 -155.5 -600t-475.5 -217v164z" />
<glyph unicode="*" horiz-adv-x="731" d="M61 1098l48 125l196 -66l-6 209h133l-4 -209l195 66l47 -125l-209 -60l151 -166l-108 -84l-137 170l-138 -170l-110 84l151 166z" />
<glyph unicode="+" horiz-adv-x="1126" d="M68 612v172h405v383h178v-383h406v-172h-406v-383h-178v383h-405z" />
<glyph unicode="," horiz-adv-x="438" d="M88 -256l107 256h-70v221h205v-196l-135 -281h-107z" />
<glyph unicode="-" horiz-adv-x="684" d="M0 467v158h684v-158h-684z" />
<glyph unicode="." horiz-adv-x="425" d="M111 0v221h204v-221h-204z" />
<glyph unicode="/" horiz-adv-x="980" d="M-78 -158l967 1682h170l-965 -1682h-172z" />
<glyph unicode="0" horiz-adv-x="1433" d="M70 672q0 358 161.5 531t497.5 173q166 0 292 -46t200 -132q68 -80 105.5 -212t37.5 -288q0 -162 -42 -301t-116 -229q-78 -92 -191.5 -135t-279.5 -43q-373 0 -526 184q-68 80 -103.5 209t-35.5 289zM301 698q0 -279 97.5 -406.5t308.5 -127.5q223 0 324.5 129 t101.5 418q0 260 -100.5 375.5t-325.5 115.5q-266 0 -353 -196q-27 -59 -40 -138.5t-13 -169.5z" />
<glyph unicode="1" horiz-adv-x="512" d="M147 0v1366h220v-1366h-220z" />
<glyph unicode="2" horiz-adv-x="1269" d="M74 0v365q0 70 5 121t16 88.5t30.5 66.5t50.5 55q59 53 146.5 76t222.5 23h90q98 0 152.5 8t86.5 28q92 55 93 177q0 111 -86 157q-16 8 -35 13.5t-43.5 8.5t-59 4t-84.5 1h-573v174h600q66 0 109 -1t71.5 -3t49 -6t42.5 -10q111 -33 175.5 -126.5t64.5 -220.5 q0 -106 -52 -194t-147 -135q-98 -49 -313 -49h-123q-78 0 -130 -11.5t-83 -38t-44 -71.5t-13 -113v-213h907v-174h-1126z" />
<glyph unicode="3" horiz-adv-x="1236" d="M70 0v174h555q92 0 144 12.5t89 42.5q66 59 66 156q0 63 -25 111.5t-70 76.5q-68 41 -233 41h-391v174h420q102 0 150 9.5t83 33.5q80 57 80 166q0 106 -66.5 150.5t-228.5 44.5h-573v174h594q139 0 218 -14.5t132 -46.5q72 -45 110.5 -121t38.5 -174q0 -115 -56 -186.5 t-187 -125.5q125 -35 182 -112.5t57 -206.5q0 -104 -48 -188.5t-134 -133.5q-31 -18 -62.5 -29.5t-71.5 -17.5t-96.5 -8t-136.5 -2h-540z" />
<glyph unicode="4" horiz-adv-x="1429" d="M47 317v185l791 864h333v-874h203v-175h-203v-317h-219v317h-905zM274 492h678v741z" />
<glyph unicode="5" horiz-adv-x="1339" d="M111 0v174h616q82 0 130 8t83 31q43 29 67.5 80t24.5 119q0 59 -20.5 106t-59.5 72q-35 23 -80 32t-135 9h-626v735h1067v-174h-848v-387h428q80 0 137 -4t100 -13.5t75 -24.5t60 -38q66 -53 100 -134t34 -179q0 -119 -47.5 -210t-137.5 -143q-31 -16 -62.5 -27.5 t-73.5 -18.5t-97 -10t-129 -3h-606z" />
<glyph unicode="6" horiz-adv-x="1372" d="M70 659q0 444 278 623q72 47 153 65.5t208 18.5h540v-174h-508q-78 0 -136 -7t-101 -24.5t-75 -45.5t-56 -68q-53 -86 -62 -224h430q80 0 139.5 -4t105.5 -12t82 -22.5t67 -34.5q78 -53 119.5 -136.5t41.5 -187.5q0 -121 -52 -215t-150 -150q-125 -72 -363 -71 q-145 0 -246.5 25.5t-179.5 80.5q-121 86 -178 224t-57 339zM301 604q0 -440 432 -440q162 0 247 65.5t85 188.5q0 57 -21.5 105t-62.5 77q-63 49 -225 49h-455v-45z" />
<glyph unicode="7" horiz-adv-x="1257" d="M47 1192v174h1161v-248l-745 -1118h-244l801 1192h-973z" />
<glyph unicode="8" horiz-adv-x="1454" d="M80 381q0 70 22.5 130t63.5 101q25 27 53.5 45.5t83.5 44.5q-117 45 -167 111t-50 176q0 117 57.5 200t167.5 126q72 29 191 45t256 16q309 0 444 -84q78 -51 120 -124.5t42 -168.5q0 -72 -26.5 -130t-73.5 -97q-23 -18 -47.5 -32.5t-73.5 -37.5q125 -39 179 -109.5 t54 -193.5q0 -106 -50 -192t-144 -141q-72 -41 -173.5 -58.5t-265.5 -17.5q-98 0 -172.5 4t-133 14t-103.5 25.5t-82 38.5q-172 106 -172 309zM311 399q0 -123 101.5 -179t324.5 -56q211 0 309.5 56t98.5 175q0 63 -22.5 108.5t-74 74t-131 41t-194.5 12.5 q-221 0 -316.5 -53.5t-95.5 -178.5zM317 993q0 -129 121 -166q37 -12 114 -19t181 -7q113 0 181.5 8t109.5 27q57 27 83 64.5t26 96.5q0 133 -127 179q-39 12 -108 19t-161 7q-115 0 -194.5 -11t-130 -36t-73 -65t-22.5 -97z" />
<glyph unicode="9" horiz-adv-x="1372" d="M74 940q0 121 52 215t150 150q125 72 363 71q145 0 246.5 -25.5t179.5 -80.5q121 -86 178 -224.5t57 -338.5q0 -193 -48 -330t-152 -234q-84 -78 -183.5 -110.5t-254.5 -32.5h-541v174h508q78 0 136 7t101 24.5t75 45.5t56 68q53 86 62 224h-430q-80 0 -140.5 4 t-106.5 12t-81 22.5t-65 34.5q-78 53 -120 136.5t-42 187.5zM305 948q0 -57 21.5 -105t62.5 -77q63 -49 225 -49h455v45q0 440 -432 440q-162 0 -247 -65.5t-85 -188.5z" />
<glyph unicode=":" horiz-adv-x="425" d="M111 0v221h204v-221h-204zM111 444v222h204v-222h-204z" />
<glyph unicode=";" horiz-adv-x="438" d="M88 -256l107 256h-70v221h205v-196l-135 -281h-107zM125 444v222h205v-222h-205z" />
<glyph unicode="&#x3c;" d="M68 602v184l886 439v-217l-655 -314l655 -315v-215z" />
<glyph unicode="=" horiz-adv-x="1126" d="M68 446v172h989v-172h-989zM68 778v172h989v-172h-989z" />
<glyph unicode="&#x3e;" d="M68 164v217l655 313l-655 314v215l886 -439v-184z" />
<glyph unicode="?" horiz-adv-x="1155" d="M127 0v221h205v-221h-205zM127 315v146q0 70 3 116t10 78.5t20.5 54t36.5 44.5q18 20 43.5 33.5t62.5 21.5t89 11t126 3h123q231 0 231 191q0 109 -71 151q-27 14 -67 20.5t-111 6.5h-496v174h565q113 0 180.5 -17.5t120.5 -62.5q111 -94 111 -266q0 -100 -41 -182 t-113 -129q-51 -33 -120.5 -46.5t-188.5 -13.5h-96q-72 0 -115 -6t-64.5 -26.5t-27.5 -62.5t-6 -112v-127h-205z" />
<glyph unicode="@" horiz-adv-x="1572" d="M70 682q0 92 18 181t51 166t79 138.5t101 102.5q162 117 488 116q332 0 500 -126q92 -70 145 -186t53 -247q0 -113 -41 -218t-112 -177q-43 -45 -87 -70.5t-120 -50.5h-410q-61 0 -99 2t-64.5 7.5t-45 15.5t-41.5 26q-94 74 -94 218q0 129 43 232t121 159q59 45 130 63.5 t175 18.5h305l-86 -615h97q33 23 50 40.5t34 41.5q41 63 62 142t21 163q0 119 -43 220.5t-114 148.5q-115 78 -377 78q-174 0 -277.5 -32t-162.5 -103q-29 -35 -52.5 -85.5t-40 -109.5t-25.5 -125.5t-9 -134.5q0 -78 12 -152.5t33.5 -138t52.5 -115t68 -81.5 q51 -45 128.5 -62.5t219.5 -17.5h424v-115h-437q-176 0 -286.5 31.5t-186.5 103.5q-45 43 -81.5 104.5t-63.5 133t-41 150.5t-14 159zM573 608q0 -84 43 -120.5t138 -36.5h151l66 462h-142q-76 0 -121.5 -18t-74.5 -59t-44.5 -103t-15.5 -125z" />
<glyph unicode="A" horiz-adv-x="1411" d="M8 0l565 1366h287l543 -1366h-232l-139 356h-647l-145 -356h-232zM451 530h512l-250 672z" />
<glyph unicode="B" horiz-adv-x="1370" d="M147 0v1366h654q80 0 139 -5t104.5 -17.5t77 -33t60.5 -50.5q43 -47 66.5 -110t23.5 -134q0 -217 -211 -314q123 -43 177 -117.5t54 -197.5q0 -102 -41 -185t-118 -130q-57 -37 -150.5 -54.5t-234.5 -17.5h-601zM367 174h415q279 0 279 227q0 115 -60.5 164t-199.5 49 h-434v-440zM367 788h434q66 0 105.5 9.5t68.5 31.5q72 55 72 162q0 47 -14.5 86t-43.5 66q-29 29 -67.5 39t-120.5 10h-434v-404z" />
<glyph unicode="C" horiz-adv-x="1239" d="M70 674q0 96 17 186t49 168t78 140.5t101 103.5q70 49 170.5 71.5t247.5 22.5h436v-174h-424q-72 0 -124 -5t-90.5 -18.5t-67.5 -34t-53 -51.5q-51 -66 -80 -176t-29 -239t33 -229.5t92 -166.5q27 -29 56.5 -47t69.5 -29.5t91 -16.5t121 -5h405v-174h-424q-96 0 -170.5 8 t-135 26.5t-107.5 48.5t-88 73q-82 86 -128 222t-46 296z" />
<glyph unicode="D" horiz-adv-x="1423" d="M147 0v1366h525q106 0 184 -7t136.5 -24.5t103.5 -47.5t88 -75q90 -94 131 -218t41 -298q0 -233 -65.5 -389.5t-194.5 -232.5q-37 -23 -74 -37t-82 -22.5t-104.5 -11.5t-143.5 -3h-545zM367 174h348q125 0 203.5 34t125.5 109q41 59 60.5 148.5t19.5 200.5 q0 133 -27.5 239.5t-76.5 171.5q-47 61 -121 88t-199 27h-333v-1018z" />
<glyph unicode="E" horiz-adv-x="1220" d="M70 655q0 416 239 605q72 55 175.5 80.5t256.5 25.5h385v-174h-397q-74 0 -129 -8t-97 -27.5t-73 -50.5t-57 -76q-16 -27 -26.5 -52.5t-17.5 -54t-11.5 -65.5t-6.5 -84h815v-174h-817q2 -154 66 -266q51 -88 128 -124t214 -36h409v-174h-448q-90 0 -162 10t-128 33 t-102 58.5t-85 88.5q-70 92 -100.5 201.5t-30.5 263.5z" />
<glyph unicode="F" horiz-adv-x="1226" d="M131 0v823q0 57 2 100.5t7 77t14.5 62.5t23.5 57q76 156 256 215q100 31 311 31h404v-174h-422q-104 0 -176 -18.5t-116 -58.5t-64.5 -104.5t-20.5 -158.5v-78h799v-174h-799v-600h-219z" />
<glyph unicode="G" horiz-adv-x="1357" d="M70 676q0 453 252 604q39 25 80.5 41t92 26.5t114 14.5t143.5 4h495v-174h-477q-68 0 -112 -2t-75.5 -8t-56 -16.5t-51.5 -26.5q-174 -106 -174 -447q0 -66 4 -119t13.5 -96t24.5 -80t38 -71q29 -45 60.5 -74t76.5 -46.5t105.5 -24.5t146.5 -7h258v434h-420v174h639v-782 h-506q-98 0 -171.5 7t-131 23.5t-103.5 44t-89 68.5q-92 88 -134 216.5t-42 316.5z" />
<glyph unicode="H" horiz-adv-x="1454" d="M147 0v1366h220v-588h720v588h220v-1366h-220v604h-720v-604h-220z" />
<glyph unicode="I" horiz-adv-x="512" d="M147 0v1366h220v-1366h-220z" />
<glyph unicode="J" horiz-adv-x="997" d="M10 0v174h264q125 0 200 12.5t114 53.5t50 118.5t11 208.5v799h219v-799q0 -102 -5 -172.5t-19.5 -121t-37 -86t-58.5 -68.5q-39 -35 -80 -57.5t-95.5 -37t-126 -19.5t-172.5 -5h-264z" />
<glyph unicode="K" horiz-adv-x="1339" d="M147 0v1366h220v-1366h-220zM367 696l659 670h266l-692 -659l733 -707h-293z" />
<glyph unicode="L" horiz-adv-x="1011" d="M131 545v821h219v-795q0 -129 14.5 -196.5t49.5 -108.5q84 -92 295 -92h292v-174h-335q-158 0 -256.5 31.5t-167.5 107.5q-31 33 -52.5 71t-34 86t-18.5 109.5t-6 139.5z" />
<glyph unicode="M" horiz-adv-x="1798" d="M147 0v1366h322l449 -1114l413 1114h322v-1366h-211v1161l-426 -1161h-217l-441 1161v-1161h-211z" />
<glyph unicode="N" horiz-adv-x="1462" d="M147 0v1366h261l698 -1094v1094h211v-1366h-252l-707 1090v-1090h-211z" />
<glyph unicode="O" horiz-adv-x="1462" d="M70 680q0 158 43 294t116 218q90 100 217 147t308 47q639 0 639 -700q0 -201 -48.5 -335t-150.5 -222q-178 -150 -473 -149q-176 0 -308 53t-210 155q-31 39 -55.5 94.5t-42 120t-26.5 135t-9 142.5zM301 684q0 -279 103.5 -404.5t330.5 -125.5q291 0 381 211 q20 47 32.5 132t12.5 177q0 127 -20.5 228.5t-59.5 156.5q-102 154 -348 153q-139 0 -235.5 -53t-143.5 -153q-25 -55 -39 -140.5t-14 -181.5z" />
<glyph unicode="P" horiz-adv-x="1286" d="M147 0v1366h605q72 0 127 -6t98 -18.5t78 -34t67 -52.5q117 -115 117 -319q0 -117 -40 -210t-112 -151q-55 -43 -142 -61t-234 -18h-344v-496h-220zM367 670h358q84 0 134 14t83 49q29 31 46.5 87.5t17.5 119.5t-19.5 115.5t-54.5 85.5q-29 29 -79 40t-136 11h-350v-522z " />
<glyph unicode="Q" horiz-adv-x="1472" d="M70 670q0 168 46 301t132 225t211 141t282 49q307 0 474 -175t167 -498q0 -92 -11 -167t-36.5 -139.5t-65.5 -121t-98 -111.5h246v-174h-393h-44q-34 0 -85 -2h-96q-94 0 -167 6t-131.5 21.5t-106.5 38t-91 57.5q-113 90 -173 231.5t-60 317.5zM301 680q0 -115 23.5 -209 t70.5 -160q47 -68 139.5 -104.5t213.5 -36.5q115 0 192.5 39t128.5 125q82 135 82 338q0 274 -103.5 407t-320.5 133q-104 0 -192.5 -36.5t-137.5 -102.5q-47 -59 -71.5 -161.5t-24.5 -231.5z" />
<glyph unicode="R" horiz-adv-x="1378" d="M147 0v1366h623q147 0 237.5 -19.5t149.5 -60.5q66 -49 103.5 -128t37.5 -171q0 -88 -30.5 -160.5t-89.5 -119.5q-35 -29 -70 -45.5t-94 -32.5q68 -31 114 -65t74.5 -81t43 -114.5t20.5 -161.5q4 -61 6 -94t6 -52.5t9 -32t16 -28.5h-226q-6 14 -9 22.5t-7 34.5 q-4 51 -6 78t-6 62q-10 106 -39 180t-83.5 118t-138 63.5t-204.5 19.5h-217v-578h-220zM367 752h389q96 0 150.5 10t84.5 35q76 61 76 176q0 66 -23.5 117t-68.5 75q-29 14 -77 20.5t-142 6.5h-389v-440z" />
<glyph unicode="S" horiz-adv-x="1304" d="M74 954q0 117 52 209t144 146q57 31 134 44t200 13h561v-174h-561q-90 0 -138 -9t-83 -30q-35 -25 -56.5 -69t-21.5 -99q0 -104 68.5 -147t230.5 -43h82q90 0 154.5 -4.5t112.5 -13.5t82 -24.5t63 -37.5q63 -53 98 -137t35 -187q0 -121 -51.5 -209t-147.5 -135 q-29 -14 -59.5 -23.5t-70.5 -14.5t-92 -7t-124 -2h-563v174h590q78 0 123 8t77 29q86 51 86 172q0 78 -31.5 130t-90.5 71q-29 8 -74 11t-131 3h-113q-129 0 -211 16.5t-135 53.5q-68 45 -103.5 118.5t-35.5 167.5z" />
<glyph unicode="T" horiz-adv-x="1177" d="M6 1192v174h1163v-174h-471v-1192h-219v1192h-473z" />
<glyph unicode="U" horiz-adv-x="1423" d="M131 555v811h219v-811q0 -119 15.5 -186.5t52.5 -108.5q88 -106 293 -106q117 0 199.5 34.5t123.5 102.5q12 18 19.5 41.5t12.5 55.5t7 77t2 106v795h219v-795q0 -98 -5 -165.5t-19.5 -117.5t-39 -87t-61.5 -72q-162 -150 -487 -149q-170 0 -283.5 48t-183.5 150 q-25 33 -40 70t-25.5 81t-14.5 99t-4 127z" />
<glyph unicode="V" horiz-adv-x="1441" d="M6 1366h252l467 -1161l473 1161h236l-582 -1366h-260z" />
<glyph unicode="W" horiz-adv-x="1845" d="M29 1366h237l246 -1145l279 1145h270l274 -1145l250 1145h232l-351 -1366h-274l-268 1112l-283 -1112h-274z" />
<glyph unicode="X" horiz-adv-x="1376" d="M10 0l535 700l-453 666h262l336 -502l375 502h262l-510 -666l547 -700h-264l-422 545l-404 -545h-264z" />
<glyph unicode="Y" horiz-adv-x="1323" d="M6 1366h254l408 -645l399 645h252l-547 -817v-549h-219v549z" />
<glyph unicode="Z" horiz-adv-x="1300" d="M80 0v217l909 975h-909v174h1139v-217l-900 -975h900v-174h-1139z" />
<glyph unicode="[" horiz-adv-x="688" d="M131 141v1084q0 100 14.5 151t53.5 88q37 35 85 47.5t144 12.5h193v-158h-117q-59 0 -93 -5t-52.5 -21.5t-23.5 -47t-5 -84.5v-1050q0 -53 5 -84t23.5 -47.5t52 -21.5t93.5 -5h117v-158h-193q-96 0 -144 12.5t-85 47.5q-39 37 -53.5 88t-14.5 151z" />
<glyph unicode="\" horiz-adv-x="980" d="M-78 1524h172l965 -1682h-170z" />
<glyph unicode="]" horiz-adv-x="688" d="M70 0h116q57 0 92 5t53.5 21.5t23.5 47t5 84.5v1050q0 53 -5 84t-23.5 47.5t-53 21.5t-92.5 5h-116v158h192q96 0 144.5 -12.5t85.5 -47.5q39 -37 53 -88t14 -151v-1084q0 -100 -14.5 -151t-52.5 -88q-37 -35 -85.5 -47.5t-144.5 -12.5h-192v158z" />
<glyph unicode="^" d="M27 711l342 661h286l342 -661h-231l-254 487l-256 -487h-229z" />
<glyph unicode="_" d="M0 -78h1024v-172h-1024v172z" />
<glyph unicode="`" d="M211 1378h205l190 -258h-151z" />
<glyph unicode="a" horiz-adv-x="1138" d="M82 299q0 90 35 161.5t96 106.5q37 23 95.5 32t150.5 9h354q0 76 -7 122t-30.5 70.5t-68.5 32t-119 7.5h-469v157h512q133 0 203.5 -20.5t113.5 -71.5q37 -43 50.5 -102.5t13.5 -171.5v-631h-506q-74 0 -123 3t-85 10t-61.5 19.5t-52.5 33.5q-102 83 -102 233zM287 303 q0 -80 44 -112.5t150 -32.5h332v293h-332q-106 0 -150 -34t-44 -114z" />
<glyph unicode="b" horiz-adv-x="1136" d="M141 0v1366h199v-369h276q127 0 202 -26.5t132 -91.5q57 -61 86 -154.5t29 -210.5q0 -125 -27.5 -223t-81.5 -162q-31 -37 -67.5 -61.5t-84.5 -40t-113.5 -21.5t-155.5 -6h-394zM340 158h231q98 0 154.5 24.5t87.5 79.5q47 88 47 238q0 182 -64.5 261t-215.5 79h-240 v-682z" />
<glyph unicode="c" horiz-adv-x="962" d="M72 481q0 117 32.5 215.5t98.5 167.5q33 37 69.5 62.5t81.5 41t99.5 22.5t124.5 7h317v-157h-317q-164 0 -233 -79t-69 -263q0 -203 89 -285q35 -31 82 -43t131 -12h317v-158h-317q-78 0 -135.5 6t-102.5 19.5t-80 35t-63 54.5q-59 66 -92 160.5t-33 205.5z" />
<glyph unicode="d" horiz-adv-x="1140" d="M70 479q0 141 46 257t124 175q111 86 331 86h230v369h198v-1366h-444q-137 0 -215 21.5t-135 74.5q-63 59 -99 160.5t-36 222.5zM274 502q0 -188 63.5 -266t217.5 -78h246v682h-213q-104 0 -162.5 -23.5t-95.5 -83.5q-56 -81 -56 -231z" />
<glyph unicode="e" horiz-adv-x="972" d="M72 481q0 160 57 274.5t170 178.5q57 35 127 49t168 14h287v-157h-258q-84 0 -142.5 -12.5t-98.5 -42t-63.5 -76.5t-35.5 -117h598v-158h-598q0 -76 16 -124t53 -87q35 -35 89.5 -50t152.5 -15h287v-158h-340q-66 0 -115 5t-88 15.5t-69.5 29t-59.5 44.5 q-66 63 -101.5 161.5t-35.5 225.5z" />
<glyph unicode="f" horiz-adv-x="755" d="M39 840v157h176v45q0 172 76 248t248 76h204v-158h-178q-47 0 -75.5 -6t-46 -23.5t-23.5 -48t-6 -77.5v-56h313v-157h-313v-840h-199v840h-176z" />
<glyph unicode="g" horiz-adv-x="1153" d="M74 475q0 123 32.5 224.5t94.5 170.5q31 37 66.5 60.5t82.5 39t107.5 21.5t140.5 6h412v-884q0 -72 -1 -111t-2 -61.5t-2 -34.5t-4 -31q-16 -129 -151 -170q-25 -6 -46.5 -11t-49 -7t-62.5 -3t-84 -1h-426v157h457q57 0 91 4t52.5 16.5t23.5 37t5 65.5v37h-213 q-76 0 -125 2t-84 8t-62.5 17.5t-58.5 29.5q-96 57 -145 164t-49 254zM279 477q0 -74 19 -139.5t54 -106.5t83 -57t143 -16h233v682h-199q-61 0 -105 -5.5t-76 -16.5t-53.5 -30.5t-39.5 -48.5q-27 -41 -43 -115.5t-16 -146.5z" />
<glyph unicode="h" horiz-adv-x="1153" d="M141 0v1366h199v-369h231q135 0 216 -20.5t137 -69.5q55 -49 77.5 -127t22.5 -217v-563h-199v580q0 78 -11 128t-40 79.5t-78 41t-125 11.5h-231v-840h-199z" />
<glyph unicode="i" horiz-adv-x="481" d="M141 0v997h199v-997h-199zM141 1159v207h199v-207h-199z" />
<glyph unicode="j" horiz-adv-x="544" d="M-68 -182h123q51 0 80 5t44.5 24.5t19.5 58.5t4 104v987h198v-931q0 -96 -3 -157t-14 -98.5t-29.5 -61t-49.5 -42.5q-41 -29 -94 -38t-156 -9h-123v158zM203 1159v207h198v-207h-198z" />
<glyph unicode="k" horiz-adv-x="1103" d="M141 0v1366h199v-762l471 393h254l-490 -393h101q96 0 159.5 -19.5t104.5 -62.5q39 -39 54.5 -95t15.5 -157v-270h-199v229q0 86 -12.5 127t-44.5 66q-16 12 -35 19.5t-44.5 11.5t-61 6t-87.5 2h-186v-461h-199z" />
<glyph unicode="l" horiz-adv-x="481" d="M141 0v1366h199v-1366h-199z" />
<glyph unicode="m" horiz-adv-x="1611" d="M141 0v997h883q92 0 149.5 -2t95.5 -10t63.5 -21.5t53.5 -37.5q27 -23 46.5 -50.5t31 -63.5t16.5 -84t5 -112v-616h-199v616q0 125 -49 174.5t-176 49.5h-154v-840h-198v840h-369v-840h-199z" />
<glyph unicode="n" horiz-adv-x="1134" d="M141 0v997h461q217 0 310.5 -93t93.5 -310v-594h-199v573q0 74 -12.5 125.5t-40 83t-72.5 45t-111 13.5h-231v-840h-199z" />
<glyph unicode="o" horiz-adv-x="1161" d="M72 477q0 117 32.5 216.5t96.5 168.5q66 76 162 111t233 35q238 0 366 -133.5t128 -380.5q0 -240 -133.5 -372t-374.5 -132q-246 0 -378 125.5t-132 361.5zM276 489q0 -166 76 -250.5t223 -84.5q309 0 310 335q0 174 -80 264.5t-230 90.5q-145 0 -222 -91.5t-77 -263.5z " />
<glyph unicode="p" horiz-adv-x="1116" d="M141 -317v1314h412q78 0 134 -5t98 -19.5t75 -37t66 -58.5q119 -131 118 -377q0 -127 -39.5 -236.5t-109.5 -175.5q-31 -27 -60.5 -44t-70.5 -26.5t-97.5 -13.5t-136.5 -4h-190v-317h-199zM340 158h190q174 0 238 71q35 39 53.5 112t18.5 171q0 176 -72 252t-238 76h-190 v-682z" />
<glyph unicode="q" horiz-adv-x="1120" d="M72 487q0 311 172 433q113 78 348 77h387v-1314h-199v317h-215q-78 0 -129 2t-88 9t-62.5 19.5t-52.5 30.5q-161 119 -161 426zM276 485q0 -174 68 -250.5t221 -76.5h215v682h-200q-84 0 -141.5 -19.5t-93.5 -61.5t-52.5 -110t-16.5 -164z" />
<glyph unicode="r" horiz-adv-x="823" d="M141 0v997h256q125 0 192.5 -16t115.5 -59q45 -41 62 -101.5t17 -175.5v-98h-186v98q0 109 -38 147.5t-142 38.5h-78v-831h-199z" />
<glyph unicode="s" horiz-adv-x="1079" d="M82 702q0 90 36 158t101 101q39 20 93.5 28t138.5 8h501v-157h-448q-53 0 -85 -1t-50.5 -4.5t-29.5 -9.5t-20 -16q-33 -37 -32 -109q0 -37 7 -60.5t28.5 -36.5t60.5 -18t100 -5h135q86 0 134.5 -2.5t75 -5.5t41 -9t32.5 -18q45 -31 69.5 -95.5t24.5 -150.5 q0 -102 -34.5 -173t-100.5 -99q-18 -8 -36.5 -13.5t-44 -8.5t-64.5 -4t-97 -1h-526v158h479q78 0 117 3t55 11q47 20 48 111q0 98 -64 112q-16 4 -46 5t-97 1h-80q-82 0 -134.5 2.5t-87 8.5t-57 18t-43.5 31q-47 41 -73.5 104t-26.5 137z" />
<glyph unicode="t" horiz-adv-x="770" d="M35 840v157h190v369h199v-369h289v-157h-289v-525q0 -53 5 -83.5t23.5 -47t52.5 -21.5t91 -5h117v-158h-191q-96 0 -144 12.5t-85 46.5q-37 35 -52.5 90.5t-15.5 149.5v541h-190z" />
<glyph unicode="u" horiz-adv-x="1130" d="M127 408v589h199v-581q0 -78 6 -115t22 -65q23 -41 74 -59.5t141 -18.5h219v839h199v-997h-434q-82 0 -140.5 6t-101.5 22.5t-72.5 42t-56.5 66.5q-31 47 -43 107t-12 164z" />
<glyph unicode="v" horiz-adv-x="1083" d="M14 997h215l306 -739l325 739h209l-461 -997h-159z" />
<glyph unicode="w" horiz-adv-x="1613" d="M127 449v548h199v-571q0 -53 1 -86t4 -55.5t8 -37t15 -26.5q23 -35 67 -49t122 -14h164v839h198v-839h367v839h198v-997h-927q-78 0 -135.5 6t-98.5 20.5t-71.5 39t-55.5 61.5q-18 27 -29.5 51.5t-16.5 58t-7 84t-2 128.5z" />
<glyph unicode="x" horiz-adv-x="1052" d="M6 0l397 504l-387 493h240l272 -366l275 366h233l-387 -493l398 -504h-240l-279 373l-288 -373h-234z" />
<glyph unicode="y" horiz-adv-x="1130" d="M127 -160h428q55 0 88 1t52.5 4t29.5 9.5t23 16.5q23 18 30.5 47t9.5 82h-274q-47 0 -81 2t-61.5 8t-51 15.5t-50.5 25.5q-53 33 -86.5 79t-44.5 103q-4 20 -6 39t-4 42.5t-2 56.5v80v546h199v-602q0 -70 10 -114.5t34.5 -72.5t65.5 -39t105 -11h247v839h199v-833 q0 -14 -1 -44t-2 -61.5t-2 -60.5t-1 -39q-6 -98 -38 -154.5t-97 -87.5q-41 -20 -101.5 -27t-177.5 -7h-440v157z" />
<glyph unicode="z" horiz-adv-x="991" d="M66 0v215l659 625h-659v157h845v-217l-665 -622h665v-158h-845z" />
<glyph unicode="{" horiz-adv-x="741" d="M51 608v150q80 16 106.5 55t26.5 135v258q0 109 17.5 164t64.5 94q41 33 94.5 46.5t155.5 13.5h156v-158h-144q-109 0 -133 -51q-4 -8 -6 -14.5t-3 -20.5t-2 -38.5t-1 -70.5v-235q0 -49 -6 -87t-20.5 -66.5t-38 -53t-58.5 -47.5q35 -23 58.5 -46.5t38 -52t20.5 -66.5 t6 -89v-233q0 -49 1 -77t3 -43.5t6 -22.5t10 -15q31 -37 125 -37h144v-158h-156q-57 0 -98 4t-73 13.5t-55.5 25t-43.5 37.5q-35 37 -48.5 89t-13.5 149v258q0 96 -26.5 135t-106.5 55z" />
<glyph unicode="|" d="M403 -342v1708h220v-1708h-220z" />
<glyph unicode="}" horiz-adv-x="741" d="M68 0h145q109 0 133 51q4 8 6 14.5t3 20.5t2 39t1 70v235q0 49 6.5 87t20.5 66.5t37.5 53.5t58.5 47q-35 23 -58.5 46.5t-37.5 52t-20.5 66.5t-6.5 89v233q0 49 -1 77t-3 43.5t-6 22.5t-10 15q-31 37 -125 37h-145v158h157q113 0 171.5 -17.5t99.5 -62.5q35 -37 48 -89 t13 -149v-258q0 -96 26.5 -135t104.5 -55v-150q-78 -16 -104.5 -55t-26.5 -135v-258q0 -109 -17.5 -164t-64.5 -94q-41 -35 -94 -47.5t-156 -12.5h-157v158z" />
<glyph unicode="~" horiz-adv-x="1366" d="M186 1247q18 37 28.5 59.5t19 38t14.5 25.5t16 25q86 117 219 116q41 0 91.5 -13t130.5 -46q45 -18 72.5 -29.5t48 -16.5t34.5 -7t31 -2q53 0 87 25.5t75 93.5l125 -74q-41 -84 -71 -126t-71 -73q-80 -57 -172 -57q-20 0 -40.5 3t-52.5 13t-80 28.5t-122 47.5 q-57 23 -102 22q-49 0 -83 -28.5t-75 -106.5z" />
<glyph unicode="&#xa1;" horiz-adv-x="489" d="M141 0v1049h205v-1049h-205zM141 1145v221h205v-221h-205z" />
<glyph unicode="&#xa2;" horiz-adv-x="970" d="M70 616q0 154 56 272t161 183q55 35 120.5 48.5t161.5 13.5v194h123v-194h201v-175h-201v-647h201v-174h-201v-200h-123v200q-68 0 -119 5t-89.5 14.5t-68.5 24t-56 34.5q-78 59 -122 166.5t-44 234.5zM301 633q0 -104 27.5 -179t79.5 -106q29 -18 70.5 -27.5t90.5 -9.5 v647q-66 -2 -103.5 -12t-68.5 -33q-47 -35 -71.5 -108.5t-24.5 -171.5z" />
<glyph unicode="&#xa3;" horiz-adv-x="1277" d="M113 0v174h129v393h-129v138h129v116q0 86 7 151.5t24.5 117t44 91.5t65.5 74q70 59 159 85t234 26h336v-174h-293q-211 0 -295 -92q-35 -41 -49 -108.5t-14 -196.5v-90h446v-138h-446v-393h760v-174h-1108z" />
<glyph unicode="&#xa4;" horiz-adv-x="1239" d="M45 246l148 147q-82 139 -82 303q0 86 20.5 161t61.5 147l-148 147l123 123l145 -148q125 80 308 80q178 0 305 -80l147 148l121 -123l-147 -147q82 -139 81 -308q0 -166 -79 -303l145 -147l-121 -123l-145 145q-121 -82 -307 -82q-188 0 -310 82l-143 -145zM315 696 q0 -164 80 -255t223 -91q145 0 225.5 91t80.5 253q0 166 -81 257t-229 91q-141 0 -220 -92t-79 -254z" />
<glyph unicode="&#xa5;" horiz-adv-x="1216" d="M6 1366h240l366 -645l357 645h239l-450 -750h307v-129h-348v-116h307v-129h-307v-242h-219v242h-310v129h310v116h-351v129h310z" />
<glyph unicode="&#xa6;" d="M403 313h220v-655h-220v655zM403 668v698h220v-698h-220z" />
<glyph unicode="&#xa7;" horiz-adv-x="1204" d="M74 508q0 76 27.5 137.5t88.5 124.5q-57 68 -79.5 122t-22.5 122q0 96 50 179t136 128q49 27 112 36t179 9h506v-174h-506q-70 0 -108.5 -5t-67.5 -20q-41 -18 -66.5 -60t-25.5 -93q0 -88 61.5 -126t206.5 -38h80q109 0 175.5 -6t115.5 -21q92 -27 143 -104.5t51 -190.5 q0 -80 -26.5 -140t-85.5 -114q98 -98 98 -243q0 -102 -48 -184.5t-134 -122.5q-25 -12 -52.5 -19.5t-62.5 -12.5t-81 -7t-109 -2h-510v174h526q74 0 117 8t74 31q72 47 71 137q0 55 -28.5 96t-81.5 57q-25 8 -61 11.5t-107 3.5h-117q-115 0 -189.5 14t-123.5 47 q-59 39 -92 103.5t-33 142.5zM283 520q0 -41 19.5 -73.5t53.5 -47.5q33 -12 82 -18t127 -6h64q86 0 133 5t76 17q78 35 77 129q0 111 -102 138q-25 6 -65.5 9t-118.5 3h-78q-55 0 -107.5 -5t-72.5 -14q-41 -16 -64.5 -53t-23.5 -84z" />
<glyph unicode="&#xa8;" d="M227 1133v213h193v-213h-193zM602 1133v213h193v-213h-193z" />
<glyph unicode="&#xa9;" horiz-adv-x="1556" d="M68 682q0 147 56 275t153.5 223.5t228.5 150.5t282 55q143 0 271.5 -56t223.5 -151.5t150.5 -224.5t55.5 -272q0 -145 -55.5 -273t-152.5 -223.5t-226 -150.5t-277 -55q-147 0 -276 55t-225.5 150.5t-152.5 223.5t-56 273zM199 684q0 -121 46 -226.5t123.5 -184t183 -124 t226.5 -45.5q119 0 225.5 45.5t184.5 124t124 183t46 225.5q0 123 -45 228.5t-125 183t-186.5 123t-229.5 45.5q-119 0 -223.5 -46.5t-182 -125t-122.5 -183t-45 -223.5zM410 670q0 104 41 192t110 133q41 27 101.5 39.5t150.5 12.5h270v-115h-262q-84 0 -123 -11.5 t-67 -41.5q-29 -33 -45.5 -89.5t-16.5 -121.5q0 -66 18.5 -117t53.5 -82q29 -29 70 -39t120 -10h252v-115h-262q-117 0 -185.5 18.5t-117.5 65.5q-53 49 -80.5 122t-27.5 159z" />
<glyph unicode="&#xaa;" horiz-adv-x="759" d="M66 731q0 53 22.5 97t63.5 67q25 12 61.5 18.5t95.5 6.5h215q0 39 -4 63.5t-18.5 36.5t-40 16t-70.5 4h-301v107h328q74 0 121 -10.5t74.5 -35t39 -67.5t11.5 -108v-379h-324q-47 0 -79 1t-54.5 6t-39.5 12t-34 20q-67 51 -67 145zM207 735q0 -47 25.5 -64.5t91.5 -17.5 h200v160h-200q-68 0 -92.5 -16.5t-24.5 -61.5z" />
<glyph unicode="&#xab;" horiz-adv-x="1083" d="M246 410v172l227 266v-223l-100 -129l100 -123v-221zM573 410v172l228 266v-223l-101 -129l101 -123v-221z" />
<glyph unicode="&#xac;" d="M68 342v205h886v-547h-219v342h-667z" />
<glyph unicode="&#xad;" horiz-adv-x="684" d="M0 467v158h684v-158h-684z" />
<glyph unicode="&#xae;" horiz-adv-x="1556" d="M68 682q0 147 56 275t153.5 223.5t228.5 150.5t282 55q143 0 271.5 -56t223.5 -151.5t150.5 -224.5t55.5 -272q0 -145 -55.5 -273t-152.5 -223.5t-226 -150.5t-277 -55q-147 0 -276 55t-225.5 150.5t-152.5 223.5t-56 273zM199 684q0 -121 46 -226.5t125 -184t184 -124 t226 -45.5q119 0 225.5 45.5t184.5 124t124 183t46 225.5q0 123 -45 228.5t-125 183t-187.5 123t-230.5 45.5q-117 0 -221.5 -46.5t-183 -125t-123.5 -183t-45 -223.5zM453 305v742h381q88 0 142 -10.5t89 -32.5q90 -61 90 -168q0 -47 -18.5 -87t-53.5 -67 q-12 -10 -26.5 -16.5t-44.5 -20.5q66 -29 92 -77t33 -140q2 -33 4 -52.5t5 -31.5t8 -20.5t13 -18.5h-159q-6 10 -8.5 15.5t-6.5 21.5l-8 78q-10 109 -67.5 149.5t-194.5 40.5h-119v-305h-151zM604 725h219q98 0 135 22.5t37 81.5q0 63 -47 91q-16 6 -43.5 9t-81.5 3h-219 v-207z" />
<glyph unicode="&#xaf;" d="M199 1167v123h628v-123h-628z" />
<glyph unicode="&#xb0;" horiz-adv-x="776" d="M84 1077q0 63 23.5 117.5t65.5 94.5t97.5 63.5t120.5 23.5q61 0 116.5 -23.5t96.5 -64.5t64.5 -95t23.5 -116q0 -61 -24.5 -115.5t-65.5 -95.5t-96 -64.5t-119 -23.5q-61 0 -116.5 23.5t-97.5 64.5t-65.5 95.5t-23.5 115.5zM227 1077q0 -66 47.5 -111.5t112.5 -45.5 q68 0 115 46t47 111q0 66 -47 112t-115 46q-33 0 -62.5 -12.5t-51 -34t-34 -50t-12.5 -61.5z" />
<glyph unicode="&#xb1;" horiz-adv-x="1126" d="M68 100v172h989v-172h-989zM68 719v172h405v383h178v-383h406v-172h-406v-375h-178v375h-405z" />
<glyph unicode="&#xb2;" horiz-adv-x="960" d="M129 545v223q0 84 14.5 127t53.5 76t94 46t141 13h57q115 0 159 25.5t44 93.5q0 61 -51 86q-18 8 -47 11t-88 3h-369v117h383q63 0 104.5 -2t69 -8t47 -17.5t39.5 -29.5q35 -31 53.5 -74t18.5 -90q0 -66 -35 -119t-94 -82q-66 -31 -203 -31h-76q-96 0 -129.5 -26.5 t-33.5 -104.5v-120h571v-117h-723z" />
<glyph unicode="&#xb3;" horiz-adv-x="960" d="M129 545v117h356q96 0 139.5 27.5t43.5 88.5q0 70 -46.5 99.5t-154.5 29.5h-254v117h272q63 0 92 5t50 20q47 33 47 92t-40 83.5t-138 24.5h-367v117h379q90 0 140 -8t85 -29q45 -27 70.5 -74t25.5 -106q0 -66 -31.5 -109t-107.5 -75q139 -41 139 -191 q0 -63 -30.5 -114.5t-87.5 -79.5q-20 -10 -40 -17.5t-46.5 -11.5t-62.5 -5t-87 -1h-346z" />
<glyph unicode="&#xb4;" d="M416 1120l190 258h205l-244 -258h-151z" />
<glyph unicode="&#xb5;" horiz-adv-x="1144" d="M141 -317v1314h199v-581q0 -78 6 -115t23 -65q23 -41 74 -59.5t141 -18.5h219v839h198v-997h-434q-51 0 -87 1t-61.5 4t-44 8t-34.5 12v-342h-199z" />
<glyph unicode="&#xb6;" horiz-adv-x="1144" d="M49 936q0 272 199 379q53 29 118.5 40t170.5 11h593v-174h-143v-1509h-180v1509h-201q-51 0 -87 -2t-61.5 -6t-45 -11.5t-35.5 -17.5q-47 -31 -71.5 -86t-24.5 -127q0 -141 82.5 -206.5t265.5 -65.5h24v-987h-174v813q-88 4 -144 19t-106 46q-88 53 -134 149.5t-46 225.5 z" />
<glyph unicode="&#xb7;" horiz-adv-x="425" d="M111 444v222h204v-222h-204z" />
<glyph unicode="&#xb8;" d="M371 -283h98q92 0 92 58q0 31 -20.5 43t-71.5 12h-47v170h96v-82h14h5q66 4 104.5 -34t38.5 -103q0 -78 -49 -115t-156 -37h-104v88z" />
<glyph unicode="&#xb9;" horiz-adv-x="960" d="M406 547v819h151v-819h-151z" />
<glyph unicode="&#xba;" horiz-adv-x="772" d="M59 836q0 82 31 151.5t84 108.5q82 59 225 59q150 0 233 -81t83 -228q0 -145 -86 -225t-242 -80q-158 0 -243 77t-85 218zM203 844q0 -193 180 -193q188 0 188 191q0 98 -47 150t-139 52q-90 0 -136 -51t-46 -149z" />
<glyph unicode="&#xbb;" horiz-adv-x="1083" d="M283 152v221l100 123l-100 129v223l227 -266v-172zM610 152v221l101 123l-101 129v223l228 -266v-172z" />
<glyph unicode="&#xbc;" horiz-adv-x="2170" d="M487 547v819h152v-819h-152zM584 -27l870 1420h145l-870 -1420h-145zM1270 188v119l502 512h221v-514h127v-117h-127v-188h-152v188h-571zM1436 305h405v412z" />
<glyph unicode="&#xbd;" horiz-adv-x="2170" d="M582 -27l870 1420h145l-870 -1420h-145zM582 547v819h151v-819h-151zM1393 0v223q0 43 3 74t10 54.5t20.5 40t33.5 32.5q39 33 94.5 46t141.5 13h57q115 0 159 26t44 93q0 61 -51 86q-18 8 -47 11t-89 3h-370v117h385q63 0 104 -2t69 -8t47 -17.5t40 -29.5 q35 -31 53.5 -74t18.5 -90q0 -66 -35 -119t-94 -82q-66 -31 -203 -30h-76q-96 0 -130 -27t-34 -104v-119h572v-117h-723z" />
<glyph unicode="&#xbe;" horiz-adv-x="2170" d="M109 545v117h356q96 0 139 27.5t43 88.5q0 70 -46 99.5t-155 29.5h-253v117h272q63 0 92 5t49 20q47 33 47 92t-40 83.5t-138 24.5h-366v117h378q90 0 140.5 -8t85.5 -29q45 -27 70.5 -74t25.5 -106q0 -66 -32 -109t-107 -75q139 -41 139 -191q0 -63 -30.5 -114.5 t-88.5 -79.5q-20 -10 -39.5 -17.5t-46 -11.5t-62.5 -5t-87 -1h-346zM582 -27l870 1420h145l-870 -1420h-145zM1182 188v119l499 512h222v-514h127v-117h-127v-188h-152v188h-569zM1348 305h403v412z" />
<glyph unicode="&#xbf;" horiz-adv-x="1155" d="M49 346q0 100 41 182t113 129q51 33 120.5 46.5t188.5 13.5h96q72 0 115 6t64.5 26.5t27.5 61.5t6 111v127h205v-144q0 -70 -3 -117t-10 -78.5t-21.5 -54t-35.5 -43.5q-18 -20 -43.5 -33.5t-62.5 -21.5t-89 -11t-126 -3h-123q-231 0 -231 -191q0 -109 71 -151 q27 -14 67 -20.5t111 -6.5h496v-174h-565q-113 0 -180.5 17.5t-120.5 62.5q-111 94 -111 266zM821 1145v221h205v-221h-205z" />
<glyph unicode="&#xc0;" horiz-adv-x="1411" d="M8 0l565 1366h287l543 -1366h-232l-139 356h-647l-145 -356h-232zM403 1726h220l190 -245h-151zM451 530h512l-250 672z" />
<glyph unicode="&#xc1;" horiz-adv-x="1411" d="M8 0l565 1366h287l543 -1366h-232l-139 356h-647l-145 -356h-232zM451 530h512l-250 672zM621 1481l190 245h219l-258 -245h-151z" />
<glyph unicode="&#xc2;" horiz-adv-x="1411" d="M8 0l565 1366h287l543 -1366h-232l-139 356h-647l-145 -356h-232zM395 1481l230 245h184l227 -245h-176l-143 147l-144 -147h-178zM451 530h512l-250 672z" />
<glyph unicode="&#xc3;" horiz-adv-x="1411" d="M8 0l565 1366h287l543 -1366h-232l-139 356h-647l-145 -356h-232zM383 1491q29 219 190 219q59 0 156 -45q31 -14 49.5 -22.5t31.5 -12.5t23.5 -5t22.5 -1q63 0 82 82h115q-31 -219 -185 -219q-35 0 -71.5 11t-104.5 42q-37 18 -60.5 25.5t-45.5 7.5q-72 0 -88 -82h-115z M451 530h512l-250 672z" />
<glyph unicode="&#xc4;" horiz-adv-x="1411" d="M8 0l565 1366h287l543 -1366h-232l-139 356h-647l-145 -356h-232zM422 1487v213h196v-213h-196zM451 530h512l-250 672zM813 1487v213h197v-213h-197z" />
<glyph unicode="&#xc5;" horiz-adv-x="1411" d="M8 0l565 1366h287l543 -1366h-232l-139 356h-647l-145 -356h-232zM451 530h512l-250 672zM524 1649q0 39 15.5 74.5t42 61t62.5 41t77 15.5q39 0 73.5 -15.5t60.5 -42t41 -61t15 -73.5q0 -41 -15 -77t-41 -61.5t-61.5 -41t-74.5 -15.5q-82 0 -138.5 56.5t-56.5 138.5z M627 1649q0 -39 26.5 -66t63.5 -27q39 0 65.5 27t26.5 66q0 37 -26.5 63.5t-65.5 26.5q-37 0 -63.5 -26.5t-26.5 -63.5z" />
<glyph unicode="&#xc6;" horiz-adv-x="2105" d="M8 0l563 1366h289l154 -389q35 104 86 179t124.5 121t172 67.5t229.5 21.5h385v-174h-397q-68 0 -119 -6t-91 -21.5t-69.5 -39t-56.5 -60.5q-37 -53 -60.5 -126t-23.5 -138v-27h817v-174h-809q8 -90 25.5 -151.5t46.5 -114.5q49 -86 127 -123t215 -37h395v-174h-842 l-137 356h-647l-145 -356h-232zM451 530h512l-250 672z" />
<glyph unicode="&#xc7;" horiz-adv-x="1239" d="M70 674q0 96 17 186t49 168t78 140.5t101 103.5q70 49 170.5 71.5t247.5 22.5h436v-174h-424q-72 0 -124 -5t-90.5 -18.5t-67.5 -34t-53 -51.5q-51 -66 -80 -176t-29 -239t33 -229.5t92 -166.5q27 -29 57.5 -47t69.5 -29.5t89 -16.5t120 -5h407v-174h-360v-88h16h2 q16 2 44 -3t42 -15q66 -35 66 -127q0 -84 -52.5 -122t-162.5 -38h-109v96h103q98 0 98 57q0 31 -22.5 43.5t-75.5 12.5h-49v184q-66 2 -113 6t-85 11.5t-70.5 17.5t-65.5 26q-72 33 -128.5 92.5t-95 138.5t-60 176t-21.5 206z" />
<glyph unicode="&#xc8;" horiz-adv-x="1220" d="M70 655q0 416 239 605q72 55 175.5 80.5t256.5 25.5h385v-174h-397q-74 0 -129 -8t-97 -27.5t-73 -50.5t-57 -76q-16 -27 -26.5 -52.5t-17.5 -54t-11.5 -65.5t-6.5 -84h815v-174h-817q2 -154 66 -266q51 -88 128 -124t214 -36h409v-174h-448q-90 0 -162 10t-128 33 t-102 58.5t-85 88.5q-70 92 -100.5 201.5t-30.5 263.5zM469 1726h219l191 -245h-152z" />
<glyph unicode="&#xc9;" horiz-adv-x="1220" d="M70 655q0 416 239 605q72 55 175.5 80.5t256.5 25.5h385v-174h-397q-74 0 -129 -8t-97 -27.5t-73 -50.5t-57 -76q-16 -27 -26.5 -52.5t-17.5 -54t-11.5 -65.5t-6.5 -84h815v-174h-817q2 -154 66 -266q51 -88 128 -124t214 -36h409v-174h-448q-90 0 -162 10t-128 33 t-102 58.5t-85 88.5q-70 92 -100.5 201.5t-30.5 263.5zM592 1481l190 245h219l-258 -245h-151z" />
<glyph unicode="&#xca;" horiz-adv-x="1220" d="M70 655q0 416 239 605q72 55 175.5 80.5t256.5 25.5h385v-174h-397q-74 0 -129 -8t-97 -27.5t-73 -50.5t-57 -76q-16 -27 -26.5 -52.5t-17.5 -54t-11.5 -65.5t-6.5 -84h815v-174h-817q2 -154 66 -266q51 -88 128 -124t214 -36h409v-174h-448q-90 0 -162 10t-128 33 t-102 58.5t-85 88.5q-70 92 -100.5 201.5t-30.5 263.5zM401 1481l230 245h184l227 -245h-176l-143 147l-143 -147h-179z" />
<glyph unicode="&#xcb;" horiz-adv-x="1220" d="M70 655q0 416 239 605q72 55 175.5 80.5t256.5 25.5h385v-174h-397q-74 0 -129 -8t-97 -27.5t-73 -50.5t-57 -76q-16 -27 -26.5 -52.5t-17.5 -54t-11.5 -65.5t-6.5 -84h815v-174h-817q2 -154 66 -266q51 -88 128 -124t214 -36h409v-174h-448q-90 0 -162 10t-128 33 t-102 58.5t-85 88.5q-70 92 -100.5 201.5t-30.5 263.5zM428 1487v213h197v-213h-197zM819 1487v213h197v-213h-197z" />
<glyph unicode="&#xcc;" horiz-adv-x="512" d="M-10 1726h205l157 -245h-145zM147 0v1366h220v-1366h-220z" />
<glyph unicode="&#xcd;" horiz-adv-x="512" d="M147 0v1366h220v-1366h-220zM162 1481l155 245h205l-215 -245h-145z" />
<glyph unicode="&#xce;" horiz-adv-x="512" d="M-10 1481l178 245h176l178 -245h-166l-100 149l-100 -149h-166zM147 0v1366h220v-1366h-220z" />
<glyph unicode="&#xcf;" horiz-adv-x="512" d="M25 1487v213h188v-213h-188zM147 0v1366h220v-1366h-220zM301 1487v213h188v-213h-188z" />
<glyph unicode="&#xd0;" horiz-adv-x="1423" d="M10 608v164h137v594h525q106 0 184 -7t136.5 -24.5t103.5 -47.5t88 -75q90 -94 131 -219t41 -299q0 -469 -260 -620q-37 -23 -74 -37t-82 -22.5t-105.5 -11.5t-144.5 -3h-543v608h-137zM367 174h346q125 0 203.5 34t127.5 109q41 59 60.5 148.5t19.5 200.5 q0 133 -27.5 239.5t-76.5 171.5q-49 61 -122 88t-200 27h-331v-420h340v-164h-340v-434z" />
<glyph unicode="&#xd1;" horiz-adv-x="1462" d="M147 0v1366h261l698 -1094v1094h211v-1366h-252l-707 1090v-1090h-211zM403 1491q29 219 191 219q59 0 156 -45q31 -14 49 -22.5t31.5 -12.5t23.5 -5t23 -1q63 0 81 82h115q-31 -219 -184 -219q-35 0 -72 11t-104 42q-37 18 -60.5 25.5t-46.5 7.5q-72 0 -88 -82h-115z " />
<glyph unicode="&#xd2;" horiz-adv-x="1462" d="M70 680q0 158 43 294t116 218q90 100 217 147t308 47q639 0 639 -700q0 -201 -48.5 -335t-150.5 -222q-178 -150 -473 -149q-176 0 -308 53t-210 155q-31 39 -55.5 94.5t-42 120t-26.5 135t-9 142.5zM301 684q0 -279 103.5 -404.5t330.5 -125.5q291 0 381 211 q20 47 32.5 132t12.5 177q0 127 -20.5 228.5t-59.5 156.5q-102 154 -348 153q-139 0 -235.5 -53t-143.5 -153q-25 -55 -39 -140.5t-14 -181.5zM471 1726h219l191 -245h-152z" />
<glyph unicode="&#xd3;" horiz-adv-x="1462" d="M70 680q0 158 43 294t116 218q90 100 217 147t308 47q639 0 639 -700q0 -201 -48.5 -335t-150.5 -222q-178 -150 -473 -149q-176 0 -308 53t-210 155q-31 39 -55.5 94.5t-42 120t-26.5 135t-9 142.5zM301 684q0 -279 103.5 -404.5t330.5 -125.5q291 0 381 211 q20 47 32.5 132t12.5 177q0 127 -20.5 228.5t-59.5 156.5q-102 154 -348 153q-139 0 -235.5 -53t-143.5 -153q-25 -55 -39 -140.5t-14 -181.5zM594 1481l190 245h220l-259 -245h-151z" />
<glyph unicode="&#xd4;" horiz-adv-x="1462" d="M70 680q0 158 43 294t116 218q90 100 217 147t308 47q639 0 639 -700q0 -201 -48.5 -335t-150.5 -222q-178 -150 -473 -149q-176 0 -308 53t-210 155q-31 39 -55.5 94.5t-42 120t-26.5 135t-9 142.5zM301 684q0 -279 103.5 -404.5t330.5 -125.5q291 0 381 211 q20 47 32.5 132t12.5 177q0 127 -20.5 228.5t-59.5 156.5q-102 154 -348 153q-139 0 -235.5 -53t-143.5 -153q-25 -55 -39 -140.5t-14 -181.5zM410 1481l229 245h184l228 -245h-177l-143 147l-143 -147h-178z" />
<glyph unicode="&#xd5;" horiz-adv-x="1462" d="M70 680q0 158 43 294t116 218q90 100 217 147t308 47q639 0 639 -700q0 -201 -48.5 -335t-150.5 -222q-178 -150 -473 -149q-176 0 -308 53t-210 155q-31 39 -55.5 94.5t-42 120t-26.5 135t-9 142.5zM301 684q0 -279 103.5 -404.5t330.5 -125.5q291 0 381 211 q20 47 32.5 132t12.5 177q0 127 -20.5 228.5t-59.5 156.5q-102 154 -348 153q-139 0 -235.5 -53t-143.5 -153q-25 -55 -39 -140.5t-14 -181.5zM410 1491q29 219 190 219q59 0 156 -45q31 -14 49 -22.5t31.5 -12.5t23.5 -5t23 -1q63 0 82 82h114q-31 -219 -184 -219 q-35 0 -72 11t-104 42q-37 18 -60.5 25.5t-46.5 7.5q-72 0 -88 -82h-114z" />
<glyph unicode="&#xd6;" horiz-adv-x="1462" d="M70 680q0 158 43 294t116 218q90 100 217 147t308 47q639 0 639 -700q0 -201 -48.5 -335t-150.5 -222q-178 -150 -473 -149q-176 0 -308 53t-210 155q-31 39 -55.5 94.5t-42 120t-26.5 135t-9 142.5zM301 684q0 -279 103.5 -404.5t330.5 -125.5q291 0 381 211 q20 47 32.5 132t12.5 177q0 127 -20.5 228.5t-59.5 156.5q-102 154 -348 153q-139 0 -235.5 -53t-143.5 -153q-25 -55 -39 -140.5t-14 -181.5zM438 1487v213h197v-213h-197zM829 1487v213h197v-213h-197z" />
<glyph unicode="&#xd7;" horiz-adv-x="1124" d="M113 371l327 327l-327 328l123 121l325 -326l328 326l123 -121l-328 -328l328 -327l-123 -121l-328 325l-325 -325z" />
<glyph unicode="&#xd8;" horiz-adv-x="1462" d="M29 -20l176 204q-63 86 -99 216t-36 278q0 346 172 527t497 181q258 0 410 -100l86 100h199l-174 -202q133 -178 133 -496q0 -203 -47.5 -337t-151.5 -220q-88 -76 -208 -113.5t-263 -37.5q-123 0 -222.5 25.5t-185.5 78.5l-88 -104h-198zM301 684q0 -96 13.5 -178 t41.5 -146l660 770q-55 41 -122 61.5t-155 20.5q-229 0 -333.5 -126t-104.5 -402zM446 236q98 -82 293 -82q141 0 237.5 53t139.5 158q20 49 32.5 133t12.5 178q0 96 -15.5 188t-37.5 144z" />
<glyph unicode="&#xd9;" horiz-adv-x="1423" d="M131 555v811h219v-811q0 -119 15.5 -186.5t52.5 -108.5q88 -106 293 -106q117 0 199.5 34.5t123.5 102.5q12 18 19.5 41.5t12.5 55.5t7 77t2 106v795h219v-795q0 -98 -5 -165.5t-19.5 -117.5t-39 -87t-61.5 -72q-162 -150 -487 -149q-170 0 -283.5 48t-183.5 150 q-25 33 -40 70t-25.5 81t-14.5 99t-4 127zM453 1726h219l190 -245h-151z" />
<glyph unicode="&#xda;" horiz-adv-x="1423" d="M131 555v811h219v-811q0 -119 15.5 -186.5t52.5 -108.5q88 -106 293 -106q117 0 199.5 34.5t123.5 102.5q12 18 19.5 41.5t12.5 55.5t7 77t2 106v795h219v-795q0 -98 -5 -165.5t-19.5 -117.5t-39 -87t-61.5 -72q-162 -150 -487 -149q-170 0 -283.5 48t-183.5 150 q-25 33 -40 70t-25.5 81t-14.5 99t-4 127zM575 1481l191 245h219l-258 -245h-152z" />
<glyph unicode="&#xdb;" horiz-adv-x="1423" d="M131 555v811h219v-811q0 -119 15.5 -186.5t52.5 -108.5q88 -106 293 -106q117 0 199.5 34.5t123.5 102.5q12 18 19.5 41.5t12.5 55.5t7 77t2 106v795h219v-795q0 -98 -5 -165.5t-19.5 -117.5t-39 -87t-61.5 -72q-162 -150 -487 -149q-170 0 -283.5 48t-183.5 150 q-25 33 -40 70t-25.5 81t-14.5 99t-4 127zM391 1481l230 245h184l227 -245h-176l-143 147l-144 -147h-178z" />
<glyph unicode="&#xdc;" horiz-adv-x="1423" d="M131 555v811h219v-811q0 -119 15.5 -186.5t52.5 -108.5q88 -106 293 -106q117 0 199.5 34.5t123.5 102.5q12 18 19.5 41.5t12.5 55.5t7 77t2 106v795h219v-795q0 -98 -5 -165.5t-19.5 -117.5t-39 -87t-61.5 -72q-162 -150 -487 -149q-170 0 -283.5 48t-183.5 150 q-25 33 -40 70t-25.5 81t-14.5 99t-4 127zM420 1487v213h196v-213h-196zM811 1487v213h197v-213h-197z" />
<glyph unicode="&#xdd;" horiz-adv-x="1323" d="M6 1366h254l408 -645l399 645h252l-547 -817v-549h-219v549zM532 1481l191 245h219l-258 -245h-152z" />
<glyph unicode="&#xde;" horiz-adv-x="1286" d="M147 0v1366h220v-213h385q72 0 127 -6t98 -18.5t78 -34t67 -52.5q117 -115 117 -319q0 -117 -40 -210t-112 -151q-55 -43 -142 -61t-234 -18h-344v-283h-220zM367 457h358q84 0 134 14t83 49q29 31 46.5 87.5t17.5 119.5t-19.5 115.5t-54.5 85.5q-29 29 -79 40t-136 11 h-350v-522z" />
<glyph unicode="&#xdf;" horiz-adv-x="1146" d="M141 0v950q0 76 4.5 130.5t14.5 94t25.5 66.5t39.5 45q49 41 130 62.5t186 21.5q186 0 280 -63.5t94 -186.5q0 -53 -19 -91t-67 -79q78 -20 119 -52t74 -95q27 -53 38 -116.5t11 -154.5q0 -311 -164 -448q-51 -43 -107.5 -60.5t-148.5 -21.5l-168 -2h-75v160h194 q94 0 142.5 22.5t78.5 81.5q20 41 31.5 103.5t11.5 132.5q0 182 -61 262q-29 37 -75 50t-142 13h-248v-825h-199zM340 983h207q100 0 135 21q47 31 47 94q0 57 -45 82.5t-147 25.5q-113 0 -155 -38t-42 -138v-47z" />
<glyph unicode="&#xe0;" horiz-adv-x="1138" d="M82 299q0 90 35 161.5t96 106.5q37 23 95.5 32t150.5 9h354q0 76 -7 122t-30.5 70.5t-68.5 32t-119 7.5h-469v157h512q133 0 203.5 -20.5t113.5 -71.5q37 -43 50.5 -102.5t13.5 -171.5v-631h-506q-74 0 -123 3t-85 10t-61.5 19.5t-52.5 33.5q-102 83 -102 233zM287 303 q0 -80 44 -112.5t150 -32.5h332v293h-332q-106 0 -150 -34t-44 -114zM334 1378h205l190 -258h-151z" />
<glyph unicode="&#xe1;" horiz-adv-x="1138" d="M82 299q0 90 35 161.5t96 106.5q37 23 95.5 32t150.5 9h354q0 76 -7 122t-30.5 70.5t-68.5 32t-119 7.5h-469v157h512q133 0 203.5 -20.5t113.5 -71.5q37 -43 50.5 -102.5t13.5 -171.5v-631h-506q-74 0 -123 3t-85 10t-61.5 19.5t-52.5 33.5q-102 83 -102 233zM287 303 q0 -80 44 -112.5t150 -32.5h332v293h-332q-106 0 -150 -34t-44 -114zM451 1120l190 258h205l-244 -258h-151z" />
<glyph unicode="&#xe2;" horiz-adv-x="1138" d="M82 299q0 90 35 161.5t96 106.5q37 23 95.5 32t150.5 9h354q0 76 -7 122t-30.5 70.5t-68.5 32t-119 7.5h-469v157h512q133 0 203.5 -20.5t113.5 -71.5q37 -43 50.5 -102.5t13.5 -171.5v-631h-506q-74 0 -123 3t-85 10t-61.5 19.5t-52.5 33.5q-102 83 -102 233zM272 1120 l222 258h184l223 -258h-176l-139 166l-140 -166h-174zM287 303q0 -80 44 -112.5t150 -32.5h332v293h-332q-106 0 -150 -34t-44 -114z" />
<glyph unicode="&#xe3;" horiz-adv-x="1138" d="M82 299q0 90 35 161.5t96 106.5q37 23 95.5 32t150.5 9h354q0 76 -7 122t-30.5 70.5t-68.5 32t-119 7.5h-469v157h512q133 0 203.5 -20.5t113.5 -71.5q37 -43 50.5 -102.5t13.5 -171.5v-631h-506q-74 0 -123 3t-85 10t-61.5 19.5t-52.5 33.5q-102 83 -102 233zM266 1135 q29 217 180 217q57 0 156 -43q31 -14 49.5 -22.5t31.5 -12.5t22.5 -5t21.5 -1q55 0 74 80h114q-29 -217 -174 -218q-35 0 -71.5 11.5t-104.5 42.5q-37 16 -60.5 23t-45.5 7q-66 0 -78 -79h-115zM287 303q0 -80 44 -112.5t150 -32.5h332v293h-332q-106 0 -150 -34t-44 -114z " />
<glyph unicode="&#xe4;" horiz-adv-x="1138" d="M82 299q0 90 35 161.5t96 106.5q37 23 95.5 32t150.5 9h354q0 76 -7 122t-30.5 70.5t-68.5 32t-119 7.5h-469v157h512q133 0 203.5 -20.5t113.5 -71.5q37 -43 50.5 -102.5t13.5 -171.5v-631h-506q-74 0 -123 3t-85 10t-61.5 19.5t-52.5 33.5q-102 83 -102 233zM287 303 q0 -80 44 -112.5t150 -32.5h332v293h-332q-106 0 -150 -34t-44 -114zM303 1133v213h193v-213h-193zM678 1133v213h192v-213h-192z" />
<glyph unicode="&#xe5;" horiz-adv-x="1138" d="M82 299q0 90 35 161.5t96 106.5q37 23 95.5 32t150.5 9h354q0 76 -7 122t-30.5 70.5t-68.5 32t-119 7.5h-469v157h512q133 0 203.5 -20.5t113.5 -71.5q37 -43 50.5 -102.5t13.5 -171.5v-631h-506q-74 0 -123 3t-85 10t-61.5 19.5t-52.5 33.5q-102 83 -102 233zM287 303 q0 -80 44 -112.5t150 -32.5h332v293h-332q-106 0 -150 -34t-44 -114zM395 1288q0 39 15.5 74t42 61.5t62.5 41t77 14.5q39 0 73.5 -15.5t60.5 -42t41 -61.5t15 -74q0 -41 -15 -75.5t-41 -60.5t-61.5 -41t-74.5 -15q-82 0 -138.5 56t-56.5 138zM498 1286q0 -37 26.5 -63.5 t63.5 -26.5q39 0 65.5 26.5t26.5 63.5q0 39 -26.5 64.5t-65.5 25.5q-37 0 -63.5 -26.5t-26.5 -63.5z" />
<glyph unicode="&#xe6;" horiz-adv-x="1703" d="M82 303q0 150 89 218.5t288 68.5h354v61q0 25 -2 42.5t-4 28.5t-4 23q-8 29 -21.5 47.5t-37 28.5t-61.5 14.5t-95 4.5h-469v157h512q74 0 127 -6t92 -19.5t65.5 -35t47.5 -51.5q63 59 145 85.5t215 26.5h287v-157h-258q-84 0 -142.5 -12.5t-98.5 -42t-63.5 -78 t-35.5 -117.5h598v-156h-598q0 -76 16 -124t53 -87q35 -37 88.5 -51t153.5 -14h287v-158h-1104q-74 0 -123 3t-85 10t-61.5 19.5t-52.5 33.5q-102 79 -102 237zM287 307q0 -80 44 -113.5t150 -33.5h332v293h-332q-84 0 -127 -17q-31 -12 -49 -47t-18 -82z" />
<glyph unicode="&#xe7;" horiz-adv-x="962" d="M72 481q0 117 32.5 215.5t98.5 167.5q68 74 151.5 103.5t220.5 29.5h320v-157h-320q-162 0 -230.5 -79t-68.5 -263q0 -203 89 -285q35 -29 82 -42t128 -13h320v-158h-291v-82h14h5q68 4 106.5 -34t38.5 -103q0 -152 -207 -152h-104v88h98q94 0 94 58q0 31 -20.5 43 t-73.5 12h-47v170q-80 2 -154.5 22.5t-115.5 55.5q-78 59 -122 166.5t-44 236.5z" />
<glyph unicode="&#xe8;" horiz-adv-x="972" d="M72 481q0 160 57 274.5t170 178.5q57 35 127 49t168 14h287v-157h-258q-84 0 -142.5 -12.5t-98.5 -42t-63.5 -76.5t-35.5 -117h598v-158h-598q0 -76 16 -124t53 -87q35 -35 89.5 -50t152.5 -15h287v-158h-340q-66 0 -115 5t-88 15.5t-69.5 29t-59.5 44.5 q-66 63 -101.5 161.5t-35.5 225.5zM309 1378h205l191 -258h-152z" />
<glyph unicode="&#xe9;" horiz-adv-x="972" d="M72 481q0 160 57 274.5t170 178.5q57 35 127 49t168 14h287v-157h-258q-84 0 -142.5 -12.5t-98.5 -42t-63.5 -76.5t-35.5 -117h598v-158h-598q0 -76 16 -124t53 -87q35 -35 89.5 -50t152.5 -15h287v-158h-340q-66 0 -115 5t-88 15.5t-69.5 29t-59.5 44.5 q-66 63 -101.5 161.5t-35.5 225.5zM449 1120l190 258h205l-244 -258h-151z" />
<glyph unicode="&#xea;" horiz-adv-x="972" d="M72 481q0 160 57 274.5t170 178.5q57 35 127 49t168 14h287v-157h-258q-84 0 -142.5 -12.5t-98.5 -42t-63.5 -76.5t-35.5 -117h598v-158h-598q0 -76 16 -124t53 -87q35 -35 89.5 -50t152.5 -15h287v-158h-340q-66 0 -115 5t-88 15.5t-69.5 29t-59.5 44.5 q-66 63 -101.5 161.5t-35.5 225.5zM252 1120l221 258h184l224 -258h-176l-140 166l-139 -166h-174z" />
<glyph unicode="&#xeb;" horiz-adv-x="972" d="M72 481q0 160 57 274.5t170 178.5q57 35 127 49t168 14h287v-157h-258q-84 0 -142.5 -12.5t-98.5 -42t-63.5 -76.5t-35.5 -117h598v-158h-598q0 -76 16 -124t53 -87q35 -35 89.5 -50t152.5 -15h287v-158h-340q-66 0 -115 5t-88 15.5t-69.5 29t-59.5 44.5 q-66 63 -101.5 161.5t-35.5 225.5zM283 1133v213h192v-213h-192zM657 1133v213h193v-213h-193z" />
<glyph unicode="&#xec;" horiz-adv-x="481" d="M-14 1378h190l152 -258h-150zM143 0v997h199v-997h-199z" />
<glyph unicode="&#xed;" horiz-adv-x="481" d="M141 0v997h199v-997h-199zM156 1120l149 258h191l-191 -258h-149z" />
<glyph unicode="&#xee;" horiz-adv-x="481" d="M-18 1120l172 258h176l170 -258h-160l-98 164l-101 -164h-159zM141 0v997h199v-997h-199z" />
<glyph unicode="&#xef;" horiz-adv-x="481" d="M12 1133v213h187v-213h-187zM143 0v997h199v-997h-199zM285 1133v213h186v-213h-186z" />
<glyph unicode="&#xf0;" horiz-adv-x="1161" d="M72 477q0 129 41 238.5t112 175.5q59 53 149.5 85t188.5 32q35 0 65.5 -4.5t76.5 -14.5q-43 43 -102.5 85t-131.5 77l-186 -119l-68 105l123 77q-41 14 -62.5 21.5t-36 12.5t-25.5 8.5t-28 9.5l48 116q49 -8 121.5 -28.5t131.5 -42.5l191 125l68 -103l-125 -82 q467 -254 467 -745q0 -248 -131.5 -382t-376.5 -134q-246 0 -378 125.5t-132 361.5zM276 489q0 -166 76 -250.5t223 -84.5q309 0 310 335q0 174 -80 264.5t-230 90.5q-145 0 -222 -91.5t-77 -263.5z" />
<glyph unicode="&#xf1;" horiz-adv-x="1134" d="M141 0v997h461q217 0 310.5 -93t93.5 -310v-594h-199v573q0 74 -12.5 125.5t-40 83t-72.5 45t-111 13.5h-231v-840h-199zM236 1135q29 217 180 217q57 0 155 -43q31 -14 49.5 -22.5t32 -12.5t22.5 -5t21 -1q55 0 74 80h115q-29 -217 -174 -218q-35 0 -72 11.5t-104 42.5 q-37 16 -60.5 23t-46.5 7q-66 0 -78 -79h-114z" />
<glyph unicode="&#xf2;" horiz-adv-x="1161" d="M72 477q0 117 32.5 216.5t96.5 168.5q66 76 162 111t233 35q238 0 366 -133.5t128 -380.5q0 -240 -133.5 -372t-374.5 -132q-246 0 -378 125.5t-132 361.5zM276 489q0 -166 76 -250.5t223 -84.5q309 0 310 335q0 174 -80 264.5t-230 90.5q-145 0 -222 -91.5t-77 -263.5z M328 1378h204l191 -258h-152z" />
<glyph unicode="&#xf3;" horiz-adv-x="1161" d="M72 477q0 117 32.5 216.5t96.5 168.5q66 76 162 111t233 35q238 0 366 -133.5t128 -380.5q0 -240 -133.5 -372t-374.5 -132q-246 0 -378 125.5t-132 361.5zM276 489q0 -166 76 -250.5t223 -84.5q309 0 310 335q0 174 -80 264.5t-230 90.5q-145 0 -222 -91.5t-77 -263.5z M451 1120l190 258h205l-244 -258h-151z" />
<glyph unicode="&#xf4;" horiz-adv-x="1161" d="M72 477q0 117 32.5 216.5t96.5 168.5q66 76 162 111t233 35q238 0 366 -133.5t128 -380.5q0 -240 -133.5 -372t-374.5 -132q-246 0 -378 125.5t-132 361.5zM266 1120l221 258h185l223 -258h-176l-139 166l-140 -166h-174zM276 489q0 -166 76 -250.5t223 -84.5 q309 0 310 335q0 174 -80 264.5t-230 90.5q-145 0 -222 -91.5t-77 -263.5z" />
<glyph unicode="&#xf5;" horiz-adv-x="1161" d="M72 477q0 117 32.5 216.5t96.5 168.5q66 76 162 111t233 35q238 0 366 -133.5t128 -380.5q0 -240 -133.5 -372t-374.5 -132q-246 0 -378 125.5t-132 361.5zM270 1135q29 217 181 217q57 0 155 -43q31 -14 49.5 -22.5t31.5 -12.5t22.5 -5t21.5 -1q55 0 74 80h115 q-29 -217 -175 -218q-35 0 -71.5 11.5t-104.5 42.5q-37 16 -60.5 23t-45.5 7q-66 0 -78 -79h-115zM276 489q0 -166 76 -250.5t223 -84.5q309 0 310 335q0 174 -80 264.5t-230 90.5q-145 0 -222 -91.5t-77 -263.5z" />
<glyph unicode="&#xf6;" horiz-adv-x="1161" d="M72 477q0 117 32.5 216.5t96.5 168.5q66 76 162 111t233 35q238 0 366 -133.5t128 -380.5q0 -240 -133.5 -372t-374.5 -132q-246 0 -378 125.5t-132 361.5zM276 489q0 -166 76 -250.5t223 -84.5q309 0 310 335q0 174 -80 264.5t-230 90.5q-145 0 -222 -91.5t-77 -263.5z M297 1133v213h192v-213h-192zM672 1133v213h192v-213h-192z" />
<glyph unicode="&#xf7;" horiz-adv-x="1126" d="M68 612v172h989v-172h-989zM440 334q0 53 36 88t87 35q49 0 85 -36t36 -87q0 -49 -36 -85t-87 -36q-49 0 -85 36t-36 85zM440 1061q0 53 36 88t87 35q49 0 85 -36t36 -87q0 -49 -36 -85t-87 -36q-49 0 -85 36t-36 85z" />
<glyph unicode="&#xf8;" horiz-adv-x="1161" d="M10 -10l158 166q-96 131 -96 321q0 129 41 238.5t114 175.5q66 59 154 88t211 29q98 0 170 -18.5t133 -59.5l74 78h182l-160 -168q98 -135 99 -346q0 -240 -133.5 -372t-374.5 -132q-98 0 -171 18.5t-145 59.5l-73 -78h-183zM276 492q0 -61 8.5 -104.5t26.5 -88.5 l449 494q-39 27 -82 39t-98 12q-147 0 -225.5 -90t-78.5 -262zM401 199q41 -25 81 -35t93 -10q309 0 310 335q0 61 -9.5 107.5t-29.5 93.5z" />
<glyph unicode="&#xf9;" horiz-adv-x="1130" d="M127 408v589h199v-581q0 -78 6 -115t22 -65q23 -41 74 -59.5t141 -18.5h219v839h199v-997h-434q-82 0 -140.5 6t-101.5 22.5t-72.5 42t-56.5 66.5q-31 47 -43 107t-12 164zM305 1378h205l190 -258h-151z" />
<glyph unicode="&#xfa;" horiz-adv-x="1130" d="M127 408v589h199v-581q0 -78 6 -115t22 -65q23 -41 74 -59.5t141 -18.5h219v839h199v-997h-434q-82 0 -140.5 6t-101.5 22.5t-72.5 42t-56.5 66.5q-31 47 -43 107t-12 164zM428 1120l190 258h205l-243 -258h-152z" />
<glyph unicode="&#xfb;" horiz-adv-x="1130" d="M127 408v589h199v-581q0 -78 6 -115t22 -65q23 -41 74 -59.5t141 -18.5h219v839h199v-997h-434q-82 0 -140.5 6t-101.5 22.5t-72.5 42t-56.5 66.5q-31 47 -43 107t-12 164zM244 1120l221 258h184l223 -258h-176l-139 166l-139 -166h-174z" />
<glyph unicode="&#xfc;" horiz-adv-x="1130" d="M127 408v589h199v-581q0 -78 6 -115t22 -65q23 -41 74 -59.5t141 -18.5h219v839h199v-997h-434q-82 0 -140.5 6t-101.5 22.5t-72.5 42t-56.5 66.5q-31 47 -43 107t-12 164zM274 1133v213h193v-213h-193zM649 1133v213h193v-213h-193z" />
<glyph unicode="&#xfd;" horiz-adv-x="1130" d="M127 -160h428q55 0 88 1t52.5 4t29.5 9.5t23 16.5q23 18 30.5 47t9.5 82h-274q-47 0 -81 2t-61.5 8t-51 15.5t-50.5 25.5q-53 33 -86.5 79t-44.5 103q-4 20 -6 39t-4 42.5t-2 56.5v80v546h199v-602q0 -70 10 -114.5t34.5 -72.5t65.5 -39t105 -11h247v839h199v-833 q0 -14 -1 -44t-2 -61.5t-2 -60.5t-1 -39q-6 -98 -38 -154.5t-97 -87.5q-41 -20 -101.5 -27t-177.5 -7h-440v157zM438 1120l191 258h205l-244 -258h-152z" />
<glyph unicode="&#xfe;" horiz-adv-x="1116" d="M141 -317v1683h199v-369h213q78 0 134 -5t98 -19.5t75 -37t66 -58.5q119 -131 118 -377q0 -127 -39.5 -236.5t-109.5 -175.5q-31 -27 -60.5 -44t-70.5 -26.5t-97.5 -13.5t-136.5 -4h-190v-317h-199zM340 158h190q174 0 238 71q35 39 53.5 112t18.5 171q0 176 -72 252 t-238 76h-190v-682z" />
<glyph unicode="&#xff;" horiz-adv-x="1130" d="M127 -160h428q55 0 88 1t52.5 4t29.5 9.5t23 16.5q23 18 30.5 47t9.5 82h-274q-47 0 -81 2t-61.5 8t-51 15.5t-50.5 25.5q-53 33 -86.5 79t-44.5 103q-4 20 -6 39t-4 42.5t-2 56.5v80v546h199v-602q0 -70 10 -114.5t34.5 -72.5t65.5 -39t105 -11h247v839h199v-833 q0 -14 -1 -44t-2 -61.5t-2 -60.5t-1 -39q-6 -98 -38 -154.5t-97 -87.5q-41 -20 -101.5 -27t-177.5 -7h-440v157zM274 1133v213h193v-213h-193zM649 1133v213h193v-213h-193z" />
<glyph unicode="&#x152;" horiz-adv-x="2297" d="M70 680q0 158 42 293t117 219q174 195 512 194q385 0 541 -235q43 61 92 102t111.5 67t143.5 36t190 10h385v-174h-398q-74 0 -129 -8t-97 -27.5t-72.5 -50.5t-57.5 -76q-16 -27 -26.5 -52.5t-17.5 -54t-11 -65.5t-6 -84h815v-174h-818q2 -154 66 -266q51 -88 128 -124 t214 -36h410v-174h-449q-92 0 -164.5 10t-131 35t-104.5 63.5t-89 94.5q-55 -59 -113.5 -102.5t-124 -70t-140.5 -38.5t-167 -12q-176 0 -308 53t-210 155q-31 39 -55.5 94.5t-42 120t-26.5 135t-9 142.5zM301 684q0 -279 103.5 -404.5t330.5 -125.5q291 0 381 208 q20 49 32.5 134.5t12.5 177.5q0 127 -20.5 228.5t-59.5 156.5q-102 154 -348 153q-139 0 -235.5 -53t-143.5 -153q-25 -55 -39 -140.5t-14 -181.5z" />
<glyph unicode="&#x153;" horiz-adv-x="1779" d="M72 475q0 260 133 396.5t387 136.5q270 0 399 -168q74 86 167 121.5t241 35.5h287v-157h-259q-84 0 -142 -12.5t-98 -42t-63.5 -76.5t-36.5 -117h599v-158h-599q0 -76 16.5 -124t53.5 -87q35 -35 89 -50t153 -15h287v-158h-340q-76 0 -133.5 7t-101.5 23.5t-78 43 t-62 65.5q-139 -150 -389 -149q-244 0 -377 127t-133 358zM276 492q0 -166 76 -252t223 -86q309 0 310 338q0 172 -80 262t-230 90q-145 0 -222 -91t-77 -261z" />
<glyph unicode="&#x178;" horiz-adv-x="1323" d="M6 1366h254l408 -645l399 645h252l-547 -817v-549h-219v549zM369 1487v213h196v-213h-196zM760 1487v213h196v-213h-196z" />
<glyph unicode="&#x2c6;" d="M199 1120l221 258h184l223 -258h-176l-139 166l-139 -166h-174z" />
<glyph unicode="&#x2dc;" d="M188 1135q29 217 181 217q57 0 155 -43q31 -14 49.5 -22.5t31.5 -12.5t22.5 -5t21.5 -1q55 0 74 80h115q-29 -217 -174 -218q-35 0 -72 11.5t-105 42.5q-37 16 -60.5 23t-45.5 7q-66 0 -78 -79h-115z" />
<glyph unicode="&#x2000;" horiz-adv-x="919" />
<glyph unicode="&#x2001;" horiz-adv-x="1841" />
<glyph unicode="&#x2002;" horiz-adv-x="919" />
<glyph unicode="&#x2003;" horiz-adv-x="1841" />
<glyph unicode="&#x2004;" horiz-adv-x="612" />
<glyph unicode="&#x2005;" horiz-adv-x="458" />
<glyph unicode="&#x2006;" horiz-adv-x="305" />
<glyph unicode="&#x2007;" horiz-adv-x="305" />
<glyph unicode="&#x2008;" horiz-adv-x="229" />
<glyph unicode="&#x2009;" horiz-adv-x="366" />
<glyph unicode="&#x200a;" horiz-adv-x="100" />
<glyph unicode="&#x2010;" horiz-adv-x="684" d="M0 467v158h684v-158h-684z" />
<glyph unicode="&#x2011;" horiz-adv-x="684" d="M0 467v158h684v-158h-684z" />
<glyph unicode="&#x2012;" horiz-adv-x="684" d="M0 467v158h684v-158h-684z" />
<glyph unicode="&#x2013;" horiz-adv-x="1460" d="M188 477v148h1086v-148h-1086z" />
<glyph unicode="&#x2014;" horiz-adv-x="1882" d="M188 477v148h1506v-148h-1506z" />
<glyph unicode="&#x2018;" horiz-adv-x="438" d="M111 889v196l135 281h106l-106 -256h69v-221h-204z" />
<glyph unicode="&#x2019;" horiz-adv-x="438" d="M88 887l107 258h-70v221h205v-197l-135 -282h-107z" />
<glyph unicode="&#x201a;" horiz-adv-x="438" d="M88 -256l107 256h-70v221h205v-196l-135 -281h-107z" />
<glyph unicode="&#x201c;" horiz-adv-x="782" d="M111 889v196l135 281h106l-106 -256h69v-221h-204zM455 889v196l135 281h106l-106 -256h69v-221h-204z" />
<glyph unicode="&#x201d;" horiz-adv-x="782" d="M88 887l107 258h-70v221h205v-197l-135 -282h-107zM430 887l107 258h-70v221h205v-197l-135 -282h-107z" />
<glyph unicode="&#x201e;" horiz-adv-x="782" d="M88 -256l107 256h-70v221h205v-196l-135 -281h-107zM430 -256l107 256h-70v221h205v-196l-135 -281h-107z" />
<glyph unicode="&#x2022;" horiz-adv-x="1366" d="M401 694q0 59 22.5 111.5t61.5 90.5t91.5 60.5t113.5 22.5q57 0 107.5 -22.5t88.5 -61.5t60.5 -90t22.5 -109q0 -59 -22.5 -111.5t-60.5 -90t-90.5 -60t-109.5 -22.5q-59 0 -110.5 22.5t-90.5 60t-61.5 89t-22.5 110.5z" />
<glyph unicode="&#x2026;" horiz-adv-x="1275" d="M111 0v221h204v-221h-204zM537 0v221h204v-221h-204zM961 0v221h204v-221h-204z" />
<glyph unicode="&#x202f;" horiz-adv-x="366" />
<glyph unicode="&#x2039;" horiz-adv-x="755" d="M246 410v172l227 266v-223l-100 -129l100 -123v-221z" />
<glyph unicode="&#x203a;" horiz-adv-x="755" d="M283 152v221l100 123l-100 129v223l227 -266v-172z" />
<glyph unicode="&#x205f;" horiz-adv-x="458" />
<glyph unicode="&#x2122;" horiz-adv-x="1783" d="M-2 1257v109h711v-109h-283v-657h-145v657h-283zM784 600v766h205l264 -602l244 602h205v-766h-141v610l-244 -610h-139l-252 612v-612h-142z" />
<glyph unicode="&#xe000;" horiz-adv-x="995" d="M0 995h995v-995h-995v995z" />
<glyph unicode="&#xfb01;" horiz-adv-x="1110" d="M39 840v157h176v45q0 172 76 248t250 76h135v-158h-111q-47 0 -75.5 -6t-46 -23.5t-23.5 -48t-6 -77.5v-56h555v-997h-199v840h-356v-840h-199v840h-176zM770 1159v207h199v-207h-199z" />
<glyph unicode="&#xfb02;" horiz-adv-x="1110" d="M39 840v157h176v45q0 172 76 248t248 76h137v-158h-111q-47 0 -75.5 -6t-46 -23.5t-23.5 -48t-6 -77.5v-56h231v-157h-231v-840h-199v840h-176zM770 0v1366h199v-1366h-199z" />
<glyph unicode="&#xfb03;" horiz-adv-x="1992" d="M1652 0v997h199v-997h-199zM1652 1159v207h199v-207h-199zM795 840v157h176v45q0 172 76 248t248 76h204v-158h-178q-47 0 -75.5 -6t-46 -23.5t-23.5 -48t-6 -77.5v-56h313v-157h-313v-840h-199v840h-176zM39 840v157h176v45q0 172 76 248t248 76h204v-158h-178 q-47 0 -75.5 -6t-46 -23.5t-23.5 -48t-6 -77.5v-56h313v-157h-313v-840h-199v840h-176z" />
<glyph unicode="&#xfb04;" horiz-adv-x="1992" d="M1652 0v1366h199v-1366h-199zM795 840v157h176v45q0 172 76 248t248 76h204v-158h-178q-47 0 -75.5 -6t-46 -23.5t-23.5 -48t-6 -77.5v-56h313v-157h-313v-840h-199v840h-176zM39 840v157h176v45q0 172 76 248t248 76h204v-158h-178q-47 0 -75.5 -6t-46 -23.5t-23.5 -48 t-6 -77.5v-56h313v-157h-313v-840h-199v840h-176z" />
</font>
</defs>
</svg>
